# xmcd
#
# Track frame offsets: 
#        150
#        12084
#        31127
#        51195
#        63901
#        79593
#        104856
#        119921
#        140685
#        162175
#        178248
#        202953
#        218236
#
# Disc length: 3186 seconds
#
# Revision: 0
# Processed by: cddbd v1.5.2PL0 Copyright (c) Steve Scherf et al.
# Submitted via: ExactAudioCopyFreeDBPlugin 1.0
#
DISCID=bc0c700d
DTITLE=Wheeler Brothers - Portraits
DYEAR=2011
DGENRE=Country-Rock
TTITLE0=Long, Hard Road
TTITLE1=Mississippi
TTITLE2=Home for the Holidays
TTITLE3=Jersey
TTITLE4=Call Me in the Morning
TTITLE5=Portraits
TTITLE6=Just Another City
TTITLE7=Save the Nightly (Too Young)
TTITLE8=Focus
TTITLE9=Spent Time
TTITLE10=Ghost in the Valley
TTITLE11=Sleep When I'm Dead
TTITLE12=Broken Down Side Show
EXTD=
EXTT0=
EXTT1=
EXTT2=
EXTT3=
EXTT4=
EXTT5=
EXTT6=
EXTT7=
EXTT8=
EXTT9=
EXTT10=
EXTT11=
EXTT12=
PLAYORDER=
